<svg width="308" height="39" viewBox="0 0 308 39" fill="none" xmlns="http://www.w3.org/2000/svg">
<path fill-rule="evenodd" clip-rule="evenodd" d="M0 29.0487C5.527 26.7267 11.054 22.3057 16.802 16.4467C20.45 11.2517 24.872 8.76374 30.399 8.15674C34.268 8.37674 38.137 10.1467 41.839 13.7387C44.161 14.2174 46.4273 14.8621 48.638 15.6727C46.98 17.0727 45.3587 18.2887 43.774 19.3207C42.834 21.4767 42.006 23.6867 41.564 25.6767C40.624 29.4907 36.479 33.9117 31.394 35.9017C26.53 37.6707 21.555 37.9467 16.802 37.3387C8.845 36.1227 2.488 32.8067 0 29.0487ZM30.399 13.4617L31.775 17.7017H36.235L32.626 20.3217L34.003 24.5607L30.399 21.9407L26.795 24.5607L28.172 20.3207L24.562 17.7007H29.022L30.399 13.4617Z" fill="#17181D"/>
<path d="M65.7747 15.17C66.6414 13.7567 67.7714 12.65 69.1647 11.85C70.5514 11.05 72.1414 10.65 73.9347 10.65V17.71H72.1647C70.0514 17.71 68.458 18.2067 67.3847 19.2C66.3114 20.1933 65.7747 21.92 65.7747 24.38V37.63H59.0547V11.04H65.7747V15.17ZM102.685 23.76C102.685 24.72 102.621 25.5833 102.495 26.35H83.0547C83.2147 28.27 83.888 29.7733 85.0747 30.86C86.2547 31.9467 87.7114 32.49 89.4447 32.49C91.938 32.49 93.7114 31.42 94.7647 29.28H102.015C101.248 31.84 99.778 33.9433 97.6047 35.59C95.4247 37.2367 92.7514 38.06 89.5847 38.06C87.0247 38.06 84.728 37.4933 82.6947 36.36C80.6614 35.22 79.078 33.61 77.9447 31.53C76.8114 29.45 76.2447 27.05 76.2447 24.33C76.2447 21.5833 76.8047 19.17 77.9247 17.09C79.0447 15.01 80.6114 13.41 82.6247 12.29C84.638 11.17 86.958 10.61 89.5847 10.61C92.1114 10.61 94.3747 11.1533 96.3747 12.24C98.3747 13.3267 99.928 14.87 101.035 16.87C102.135 18.87 102.685 21.1667 102.685 23.76ZM83.1047 21.84H95.7247C95.698 20.1133 95.0747 18.73 93.8547 17.69C92.6414 16.65 91.1547 16.13 89.3947 16.13C87.728 16.13 86.328 16.6333 85.1947 17.64C84.0547 18.6467 83.358 20.0467 83.1047 21.84ZM111.475 11.04L118.195 31.44L124.915 11.04H132.065L122.225 37.63H114.065L104.275 11.04H111.475ZM138.785 7.87C137.598 7.87 136.615 7.49334 135.835 6.74C135.048 5.98667 134.655 5.05 134.655 3.93C134.655 2.81 135.048 1.87667 135.835 1.13C136.615 0.376668 137.598 0 138.785 0C139.971 0 140.955 0.376668 141.735 1.13C142.521 1.87667 142.915 2.81 142.915 3.93C142.915 5.05 142.521 5.98667 141.735 6.74C140.955 7.49334 139.971 7.87 138.785 7.87ZM135.375 11.04H142.095V37.63H135.375V11.04ZM172.965 23.76C172.965 24.72 172.898 25.5833 172.765 26.35H153.325C153.485 28.27 154.158 29.7733 155.345 30.86C156.531 31.9467 157.988 32.49 159.715 32.49C162.208 32.49 163.985 31.42 165.045 29.28H172.285C171.518 31.84 170.048 33.9433 167.875 35.59C165.695 37.2367 163.021 38.06 159.855 38.06C157.295 38.06 154.998 37.4933 152.965 36.36C150.938 35.22 149.355 33.61 148.215 31.53C147.081 29.45 146.515 27.05 146.515 24.33C146.515 21.5833 147.075 19.17 148.195 17.09C149.315 15.01 150.881 13.41 152.895 12.29C154.915 11.17 157.235 10.61 159.855 10.61C162.381 10.61 164.645 11.1533 166.645 12.24C168.645 13.3267 170.198 14.87 171.305 16.87C172.411 18.87 172.965 21.1667 172.965 23.76ZM153.375 21.84H166.005C165.971 20.1133 165.345 18.73 164.125 17.69C162.911 16.65 161.425 16.13 159.665 16.13C157.998 16.13 156.598 16.6333 155.465 17.64C154.331 18.6467 153.635 20.0467 153.375 21.84ZM207.805 11.04H214.245L206.465 37.63H199.215L194.365 19.05L189.525 37.63H182.225L174.405 11.04H181.215L185.925 31.29L191.005 11.04H198.115L203.105 31.25L207.805 11.04ZM224.125 14.93C224.991 13.65 226.185 12.61 227.705 11.81C229.225 11.01 230.961 10.61 232.915 10.61C235.188 10.61 237.245 11.17 239.085 12.29C240.925 13.41 242.378 15 243.445 17.06C244.518 19.1267 245.055 21.52 245.055 24.24C245.055 26.96 244.518 29.3667 243.445 31.46C242.378 33.56 240.925 35.1833 239.085 36.33C237.245 37.4833 235.188 38.06 232.915 38.06C230.928 38.06 229.191 37.67 227.705 36.89C226.218 36.1033 225.025 35.0867 224.125 33.84V37.63H217.405V2.11H224.125V14.93ZM238.195 24.24C238.195 22.64 237.865 21.2567 237.205 20.09C236.551 18.9167 235.688 18.0267 234.615 17.42C233.541 16.8133 232.381 16.51 231.135 16.51C229.921 16.51 228.778 16.8233 227.705 17.45C226.631 18.07 225.768 18.9733 225.115 20.16C224.455 21.34 224.125 22.73 224.125 24.33C224.125 25.93 224.455 27.3233 225.115 28.51C225.768 29.6967 226.631 30.6 227.705 31.22C228.778 31.8467 229.921 32.16 231.135 32.16C232.381 32.16 233.541 31.84 234.615 31.2C235.688 30.56 236.551 29.6467 237.205 28.46C237.865 27.28 238.195 25.8733 238.195 24.24ZM252.885 7.87C251.698 7.87 250.711 7.49334 249.925 6.74C249.145 5.98667 248.755 5.05 248.755 3.93C248.755 2.81 249.145 1.87667 249.925 1.13C250.711 0.376668 251.698 0 252.885 0C254.065 0 255.048 0.376668 255.835 1.13C256.615 1.87667 257.005 2.81 257.005 3.93C257.005 5.05 256.615 5.98667 255.835 6.74C255.048 7.49334 254.065 7.87 252.885 7.87ZM249.475 11.04H256.195V37.63H249.475V11.04ZM269.055 15.17C269.921 13.7567 271.051 12.65 272.445 11.85C273.831 11.05 275.421 10.65 277.215 10.65V17.71H275.445C273.331 17.71 271.738 18.2067 270.665 19.2C269.591 20.1933 269.055 21.92 269.055 24.38V37.63H262.335V11.04H269.055V15.17ZM279.525 24.24C279.525 21.5533 280.058 19.17 281.125 17.09C282.198 15.01 283.665 13.41 285.525 12.29C287.378 11.17 289.441 10.61 291.715 10.61C293.441 10.61 295.088 10.9833 296.655 11.73C298.221 12.4833 299.471 13.4833 300.405 14.73V2.11H307.215V37.63H300.405V33.69C299.571 35.0033 298.401 36.06 296.895 36.86C295.395 37.66 293.651 38.06 291.665 38.06C289.425 38.06 287.378 37.4833 285.525 36.33C283.665 35.1833 282.198 33.56 281.125 31.46C280.058 29.3667 279.525 26.96 279.525 24.24ZM300.445 24.33C300.445 22.7033 300.125 21.3033 299.485 20.13C298.845 18.9633 297.981 18.07 296.895 17.45C295.808 16.8233 294.641 16.51 293.395 16.51C292.148 16.51 290.995 16.8133 289.935 17.42C288.881 18.0267 288.025 18.9167 287.365 20.09C286.711 21.2567 286.385 22.64 286.385 24.24C286.385 25.84 286.711 27.24 287.365 28.44C288.025 29.64 288.891 30.56 289.965 31.2C291.031 31.84 292.175 32.16 293.395 32.16C294.641 32.16 295.808 31.8467 296.895 31.22C297.981 30.6 298.845 29.7033 299.485 28.53C300.125 27.3633 300.445 25.9633 300.445 24.33Z" fill="#17181D"/>
</svg>
